<svg width="28" height="28" viewBox="0 0 28 28" fill="none" xmlns="http://www.w3.org/2000/svg">
<path d="M14 2.625C11.7502 2.625 9.551 3.29213 7.68039 4.54203C5.80978 5.79193 4.35182 7.56847 3.49088 9.64698C2.62993 11.7255 2.40467 14.0126 2.84357 16.2192C3.28248 18.4257 4.36584 20.4525 5.95667 22.0433C7.54749 23.6342 9.57432 24.7175 11.7809 25.1564C13.9874 25.5953 16.2745 25.3701 18.353 24.5091C20.4315 23.6482 22.2081 22.1902 23.458 20.3196C24.7079 18.449 25.375 16.2498 25.375 14C25.3718 10.9841 24.1724 8.09271 22.0398 5.96018C19.9073 3.82764 17.0159 2.62818 14 2.625ZM14.875 6.93219L17.5864 5.06734C19.1388 5.69269 20.5023 6.71023 21.5436 8.02047L20.6686 10.967C20.6467 10.967 20.6238 10.978 20.6019 10.9856L18.1059 11.7961C18.0685 11.8081 18.0319 11.8227 17.9966 11.8398L14.875 9.69281V6.93219ZM10.4169 5.06734L13.125 6.93219V9.69281L10.0013 11.8442C9.96588 11.8271 9.92933 11.8124 9.89188 11.8005L7.39594 10.99C7.37407 10.9823 7.3511 10.9769 7.32922 10.9714L6.45422 8.02484C7.49648 6.71225 8.86201 5.6931 10.4169 5.06734ZM8.99501 19.1866H5.89532C4.98798 17.7758 4.4678 16.1512 4.38704 14.4758L6.79329 12.6295C6.81399 12.6387 6.83516 12.6467 6.85672 12.6536L9.35376 13.4652C9.38714 13.4752 9.42111 13.4833 9.45547 13.4892L10.6356 16.9258C10.6192 16.9455 10.6028 16.9652 10.5875 16.9859L9.04532 19.1089C9.02715 19.1339 9.01036 19.1598 8.99501 19.1866ZM16.4817 23.2969C14.8556 23.73 13.1444 23.73 11.5183 23.2969L10.418 20.1906C10.4322 20.1731 10.4475 20.1567 10.4606 20.1381L12.0039 18.0141C12.0221 17.9895 12.0389 17.9639 12.0542 17.9375H15.9458C15.9611 17.9639 15.9779 17.9895 15.9961 18.0141L17.5394 20.1381C17.5525 20.1567 17.5678 20.1731 17.582 20.1906L16.4817 23.2969ZM19.005 19.1833C18.9897 19.1565 18.9729 19.1306 18.9547 19.1056L17.4114 16.9859C17.3961 16.9652 17.3797 16.9455 17.3633 16.9258L18.5434 13.4892C18.5778 13.4833 18.6118 13.4752 18.6452 13.4652L21.1422 12.6536C21.1638 12.6467 21.1849 12.6387 21.2056 12.6295L23.6119 14.4758C23.5311 16.1512 23.0109 17.7758 22.1036 19.1866L19.005 19.1833Z" fill="#FFCD04"/>
</svg>
